<svg width="72" height="29" viewBox="0 0 72 29" fill="none" xmlns="http://www.w3.org/2000/svg">
<path d="M27.9838 10.7335C27.9838 9.33191 29.1201 8.19568 30.5217 8.19568H36.8663C38.2679 8.19568 39.4042 9.33191 39.4042 10.7335H27.9838Z" fill="black"/>
<rect x="27.3494" y="12.3335" width="12.6892" height="2.53785" rx="1.26892" fill="black"/>
<path d="M27.9838 16.4713H39.4042C39.4042 17.8729 38.2679 19.0091 36.8663 19.0091H30.5217C29.1201 19.0091 27.9838 17.8729 27.9838 16.4713Z" fill="black"/>
<path d="M65.9246 8.46172C65.8149 7.35543 65.344 6.496 64.512 5.88343C63.68 5.27086 62.5509 4.96457 61.1246 4.96457C60.1554 4.96457 59.3371 5.10172 58.6697 5.376C58.0023 5.64115 57.4903 6.01143 57.1337 6.48686C56.7863 6.96229 56.6126 7.50172 56.6126 8.10515C56.5943 8.608 56.6994 9.04686 56.928 9.42172C57.1657 9.79658 57.4903 10.1211 57.9017 10.3954C58.3131 10.6606 58.7886 10.8937 59.328 11.0949C59.8674 11.2869 60.4434 11.4514 61.056 11.5886L63.5794 12.192C64.8046 12.4663 65.9291 12.832 66.9531 13.2891C67.9771 13.7463 68.864 14.3086 69.6137 14.976C70.3634 15.6434 70.944 16.4297 71.3554 17.3349C71.776 18.24 71.9909 19.2777 72 20.448C71.9909 22.1669 71.552 23.6572 70.6834 24.9189C69.824 26.1714 68.5806 27.1452 66.9531 27.84C65.3349 28.5257 63.3829 28.8686 61.0971 28.8686C58.8297 28.8686 56.8548 28.5212 55.1726 27.8263C53.4994 27.1314 52.192 26.1029 51.2503 24.7406C50.3177 23.3692 49.8286 21.6731 49.7828 19.6526H55.5291C55.5931 20.5943 55.8628 21.3806 56.3383 22.0114C56.8228 22.6332 57.4674 23.104 58.272 23.424C59.0857 23.7349 60.0046 23.8903 61.0286 23.8903C62.0343 23.8903 62.9074 23.744 63.648 23.4514C64.3977 23.1589 64.9783 22.752 65.3897 22.2309C65.8011 21.7097 66.0069 21.1109 66.0069 20.4343C66.0069 19.8034 65.8194 19.2731 65.4446 18.8434C65.0789 18.4137 64.5394 18.048 63.8263 17.7463C63.1223 17.4446 62.2583 17.1703 61.2343 16.9234L58.176 16.1554C55.808 15.5794 53.9383 14.6789 52.5668 13.4537C51.1954 12.2286 50.5143 10.5783 50.5234 8.50286C50.5143 6.80229 50.9669 5.31657 51.8811 4.04572C52.8046 2.77486 54.0709 1.78286 55.68 1.06972C57.2891 0.356573 59.1177 0 61.1657 0C63.2503 0 65.0697 0.356573 66.624 1.06972C68.1874 1.78286 69.4034 2.77486 70.272 4.04572C71.1406 5.31657 71.5886 6.78857 71.616 8.46172H65.9246Z" fill="black"/>
<path d="M32.5474 27.4709H23.5909V1.38403H32.6297C35.3218 1.38403 37.5803 1.91924 39.4427 2.94653L39.4458 2.94819C41.3085 3.96723 42.7367 5.42659 43.744 7.34876L43.7456 7.35178C44.7601 9.2719 45.2892 11.6091 45.2892 14.4C45.2892 17.2005 44.76 19.5475 43.7447 21.4773L43.7431 21.4803C42.7364 23.4099 41.2999 24.8782 39.4186 25.9066L39.417 25.9075C37.5457 26.935 35.2686 27.4709 32.5474 27.4709Z" stroke="black" stroke-width="2"/>
<path d="M0 28.4709V0.384033H18.5966V5.28003H5.93829V11.9726H17.3623V16.8686H5.93829V28.4709H0Z" fill="black"/>
</svg>
