<svg width="96" height="96" viewBox="0 0 96 96" fill="none" xmlns="http://www.w3.org/2000/svg">
<path d="M48.2765 0.00163955C22.4346 0.216436 1.37825 20.886 1.3814 46.0294C1.3814 54.2439 3.59903 61.955 7.47908 68.6352C8.49484 70.3873 8.66203 72.4923 7.89864 74.3672L0.138522 93.4534C-0.476609 94.9631 1.06595 96.4636 2.61797 95.8653L23.687 87.7552C25.4157 87.0924 27.3494 87.1445 29.0434 87.8963C35.3082 90.6856 42.3081 92.18 49.6834 92.0327C75.1277 91.5233 95.7646 71.2097 95.998 46.4529C96.2377 20.7049 74.746 -0.213157 48.2765 0.00163955ZM22.2864 38.8C14.3843 39.4689 10.8323 32.2211 14.6903 26.6149C18.5136 20.7755 26.7721 23.5004 32.1316 25.2586C40.3429 25.4519 35.0338 18.7748 44.0715 19.8304C46.6897 20.3613 48.3459 21.647 49.0367 23.6967C51.1565 30.4567 45.0336 31.3496 45.1283 35.7407C44.0557 31.9327 48.9578 29.7417 47.9957 25.5931C47.3427 22.2576 45.2324 20.7878 41.6646 21.1836C44.8191 23.5034 42.4027 27.0629 38.6047 27.7656C30.996 28.9623 21.665 20.8553 16.1382 27.9896C14.7534 30.2327 14.7124 32.4359 16.0152 34.6053C18.5231 37.8702 22.4126 37.5266 21.2801 36.7594C19.8385 36.2623 18.4221 35.2773 17.0404 33.8075C19.5861 35.2865 21.4946 35.7315 22.769 35.1546C23.2327 34.8999 23.1286 34.4734 22.4567 33.872C20.6871 32.7366 19.6271 31.2116 19.2801 29.2999C20.1949 30.9538 21.8668 32.2641 24.3021 33.2368C23.7627 32.2058 23.4883 30.8617 23.4693 29.2078C25.2706 34.6053 34.6742 34.4059 37.3618 30.6132C37.2704 31.2422 36.936 31.9879 36.3461 32.8379C37.8192 32.887 39.3082 32.2917 40.8129 31.0397C38.5038 34.7465 30.526 34.1819 26.2327 34.3629C22.217 34.9398 23.8384 40.1655 24.1002 43.1327C23.6807 41.5248 23.075 40.0796 22.2895 38.7908L22.2864 38.8ZM47.2481 43.1389H42.5889C42.122 43.1389 41.6804 42.9087 41.4248 42.5252C40.9958 41.8655 40.447 41.3438 39.7845 40.9602C39.264 40.6595 38.7025 40.4478 38.1031 40.3312C38.0937 40.3281 38.0937 40.3189 38.1031 40.3189C40.529 40.2606 43.2355 40.6902 46.2071 41.6077L47.431 41.9821C47.6172 42.0404 47.7623 42.1784 47.8222 42.3564C47.8222 42.3595 47.8254 42.3656 47.8254 42.3687C47.9547 42.743 47.6613 43.1358 47.2512 43.1358L47.2481 43.1389ZM42.6677 37.0847C42.6677 37.0847 42.6677 37.0939 42.6646 37.0939C41.8759 36.9804 40.9643 36.9067 39.9138 36.8607H39.7971C35.7404 36.8607 32.3178 37.4989 29.6175 38.757L29.5733 38.7785C28.526 39.3216 27.6175 39.8678 26.8352 40.4263C26.8321 40.4294 26.8226 40.4232 26.8257 40.4171C27.81 38.8061 29.1443 37.5419 30.8225 36.6183C32.6174 35.6333 34.6521 35.1393 36.9265 35.1393C39.0022 35.1393 40.857 35.5351 42.4879 36.3329C42.4911 36.3329 42.4911 36.336 42.4911 36.336C42.5479 36.5815 42.6078 36.8331 42.6677 37.0847ZM24.5009 45.8484C24.4756 44.9002 24.8605 43.9582 25.6554 43.0254C26.1223 42.4792 26.7248 41.936 27.4693 41.396C28.2169 40.8559 29.1001 40.322 30.1254 39.7881C32.6868 38.5944 35.936 37.996 39.8602 38.0053C41.8949 38.0942 43.3964 38.306 44.3617 38.6496C44.1914 38.1433 44.0399 37.6462 43.9075 37.1645C42.8002 33.1018 43.0778 29.843 44.7497 27.379C43.592 30.6071 43.9422 34.4304 45.8065 38.846C46.0336 39.3922 46.286 39.9446 46.5667 40.5122C39.2703 38.2569 33.5102 38.8 29.2957 42.1355C28.1159 43.1235 27.4283 43.9919 27.239 44.7437C27.0339 46.4038 29.0087 45.7042 31.2421 44.4277C33.8162 42.9578 36.7499 40.7209 37.1252 40.4232C35.0212 42.9026 32.9739 44.7284 30.9739 45.8975C29.6522 46.6738 28.3525 47.1617 27.0718 47.3642C26.2043 47.5238 25.5576 47.4471 25.1223 47.131C24.7658 46.8671 24.5545 46.4437 24.4946 45.8484H24.5009ZM41.1283 67.9172C39.4627 67.9172 38.1126 66.6069 38.1126 64.9867C38.1126 63.3666 39.4659 62.0532 41.1283 62.0532C42.7908 62.0532 44.1409 63.3696 44.1409 64.9867C44.1409 66.6039 42.7939 67.9172 41.1283 67.9172ZM45.3806 55.1583C44.98 55.5541 44.5478 55.9193 44.081 56.2568C42.0936 57.6806 39.7119 58.3894 36.9265 58.3894C34.6521 58.3894 32.6174 57.8954 30.8225 56.9073C29.0276 55.9223 27.6301 54.5476 26.6302 52.7955C25.8825 51.4853 25.4157 50.04 25.2232 48.4536C25.2232 48.4505 25.2264 48.4444 25.2327 48.4505C25.5513 48.5456 25.9015 48.5916 26.28 48.5916C26.5923 48.5916 26.9267 48.5579 27.28 48.4965C28.485 48.3032 29.709 47.8828 30.9455 47.2354C30.9487 47.2323 30.955 47.2354 30.955 47.2384C31.0307 49.0212 31.5764 50.4604 32.5827 51.5589C33.6774 52.7495 35.1032 53.3448 36.8603 53.3448C37.9549 53.3448 38.9296 53.0993 39.7877 52.5961C40.2861 52.3046 40.7245 51.9363 41.0873 51.4883C41.6425 50.8194 42.4658 50.4143 43.3459 50.4143C45.8822 50.4143 47.1566 53.3816 45.3838 55.1521L45.3806 55.1583ZM50.1282 67.9172C48.4626 67.9172 47.1124 66.6069 47.1124 64.9867C47.1124 63.3666 48.4657 62.0532 50.1282 62.0532C51.7906 62.0532 53.1407 63.3696 53.1407 64.9867C53.1407 66.6039 51.7937 67.9172 50.1282 67.9172ZM59.128 67.9172C57.4624 67.9172 56.1123 66.6069 56.1123 64.9867C56.1123 63.3666 57.4656 62.0532 59.128 62.0532C60.7904 62.0532 62.1406 63.3696 62.1406 64.9867C62.1406 66.6039 60.7936 67.9172 59.128 67.9172ZM76.0173 55.4467C76.0173 56.9779 74.7397 58.2268 73.1593 58.2268C72.3707 58.2268 71.6514 57.9138 71.1372 57.4136C70.6231 56.9073 70.3013 56.2169 70.3013 55.4467V47.085C70.3013 46.5726 69.5726 46.4406 69.3865 46.9224L65.7462 56.4164C65.3298 57.5057 64.2604 58.2268 63.068 58.2268H62.4213C61.2289 58.2268 60.1627 57.5057 59.7431 56.4194L56.0744 46.8794C55.8883 46.4007 55.1596 46.5296 55.1596 47.042V55.4467C55.1596 56.9779 53.882 58.2268 52.3016 58.2268C51.513 58.2268 50.7938 57.9138 50.2796 57.4136C49.7654 56.9073 49.4436 56.2169 49.4436 55.4467V39.4383C49.4436 37.2074 51.3016 35.4001 53.595 35.4001H53.6391C55.1849 35.4001 56.5791 36.3145 57.1596 37.7076L61.6674 48.5149C62.0743 49.4907 63.4907 49.4877 63.8945 48.5119L68.3455 37.7199C68.9259 36.3176 70.3202 35.4001 71.8723 35.4001C73.0173 35.4001 74.0552 35.8512 74.8091 36.5815C75.563 37.3118 76.0236 38.3213 76.0236 39.4383V55.4467H76.0173ZM40.1189 22.6381C38.8318 21.7083 38.3713 26.5842 32.1348 25.2586C32.2767 25.3047 32.4187 25.3507 32.5543 25.3967C36.9139 26.8696 42.1125 24.7124 40.1157 22.6381H40.1189Z" fill="#F26C48"/>
</svg>
