<svg width="1055" height="352" viewBox="0 0 1055 352" fill="none" xmlns="http://www.w3.org/2000/svg">
<path d="M172.34 0.0315184C80.3372 0.810699 5.38435 76.4523 5.39962 168.472C5.39962 198.539 13.2982 226.758 27.1094 251.203C30.7302 257.619 31.3261 265.32 28.6066 272.179L0.969061 342.031C-1.21567 347.561 4.26907 353.046 9.79963 350.861L84.7984 321.176C90.9553 318.747 97.8303 318.946 103.865 321.696C126.171 331.901 151.089 337.371 177.336 336.836C267.918 334.972 341.374 260.629 342.214 170.03C343.07 75.7954 266.558 -0.76294 172.34 0.0315184ZM79.8178 142.026C51.6914 144.47 39.0413 117.948 52.7761 97.4291C66.3886 76.0551 95.7831 86.0317 114.865 92.4637C144.092 93.1665 125.193 68.7369 157.368 72.6022C166.687 74.5426 172.585 79.2482 175.044 86.7497C182.592 111.485 160.79 114.754 161.126 130.827C157.307 116.893 174.754 108.872 171.332 93.686C169.01 81.4788 161.493 76.1009 148.797 77.5523C160.026 86.0469 151.425 99.0638 137.904 101.646C110.816 106.031 77.6025 76.3607 57.9247 102.471C52.99 110.675 52.8525 118.742 57.4817 126.687C66.4039 138.634 80.2609 137.381 76.2275 134.57C71.0942 132.752 66.0525 129.146 61.1331 123.768C70.1928 129.177 76.9914 130.812 81.5289 128.703C83.1789 127.771 82.8123 126.213 80.4136 124.013C74.1192 119.857 70.3456 114.281 69.1081 107.283C72.3622 113.334 78.3206 118.131 86.9831 121.691C85.0581 117.917 84.0803 112.997 84.0192 106.947C90.4359 126.702 123.91 125.968 133.473 112.096C133.153 114.403 131.961 117.122 129.853 120.239C135.093 120.423 140.394 118.238 145.757 113.654C137.537 127.221 109.136 125.159 93.8581 125.816C79.5581 127.924 85.3331 147.052 86.265 157.915C84.7678 152.033 82.6136 146.747 79.8178 142.026ZM168.674 157.9H152.082C150.417 157.9 148.843 157.059 147.942 155.654C146.414 153.24 144.458 151.33 142.105 149.924C140.257 148.824 138.255 148.045 136.117 147.617C136.086 147.602 136.086 147.572 136.117 147.572C144.748 147.358 154.389 148.931 164.961 152.293L169.315 153.668C169.972 153.881 170.492 154.386 170.705 155.043C170.705 155.043 170.705 155.073 170.705 155.088C171.164 156.463 170.125 157.9 168.658 157.9H168.674ZM152.372 135.746C152.372 135.746 152.372 135.777 152.357 135.777C149.546 135.364 146.307 135.089 142.564 134.921H142.151C127.714 134.921 115.522 137.259 105.912 141.858L105.76 141.934C102.032 143.92 98.7928 145.922 96.0123 147.969C95.997 147.984 95.9664 147.954 95.9817 147.938C99.4803 142.041 104.232 137.412 110.205 134.035C116.591 130.43 123.833 128.627 131.93 128.627C139.325 128.627 145.925 130.078 151.73 132.996C151.746 132.996 151.746 132.996 151.746 132.996C151.944 133.898 152.158 134.814 152.372 135.731V135.746ZM87.7011 167.815C87.6095 164.347 88.9845 160.894 91.8109 157.487C93.4762 155.486 95.6151 153.5 98.2734 151.529C100.932 149.558 104.079 147.602 107.73 145.647C116.851 141.277 128.416 139.092 142.38 139.123C149.622 139.444 154.969 140.223 158.407 141.476C157.796 139.627 157.261 137.809 156.787 136.037C152.846 121.171 153.839 109.239 159.782 100.225C155.657 112.035 156.91 126.03 163.54 142.194C164.35 144.195 165.251 146.212 166.244 148.29C140.272 140.04 119.769 142.026 104.766 154.233C100.565 157.854 98.1206 161.032 97.4484 163.782C96.7151 169.862 103.743 167.296 111.703 162.621C120.869 157.243 131.304 149.054 132.648 147.969C125.162 157.044 117.875 163.721 110.755 167.998C106.05 170.84 101.421 172.628 96.8678 173.361C93.7817 173.942 91.4748 173.667 89.9317 172.505C88.6637 171.543 87.915 169.985 87.7011 167.815ZM146.887 248.575C140.96 248.575 136.147 243.778 136.147 237.85C136.147 231.922 140.96 227.109 146.887 227.109C152.815 227.109 157.612 231.922 157.612 237.85C157.612 243.778 152.815 248.575 146.887 248.575ZM162.028 201.885C160.607 203.337 159.064 204.666 157.398 205.903C150.325 211.113 141.846 213.71 131.93 213.71C123.833 213.71 116.591 211.908 110.205 208.287C103.819 204.681 98.8387 199.655 95.2789 193.238C92.6206 188.44 90.9553 183.154 90.2678 177.349C90.2678 177.333 90.2831 177.318 90.2984 177.333C91.4289 177.685 92.6817 177.853 94.0262 177.853C95.1414 177.853 96.3331 177.731 97.5859 177.501C101.879 176.799 106.233 175.255 110.633 172.887C110.648 172.872 110.664 172.887 110.664 172.903C110.939 179.426 112.879 184.697 116.454 188.715C120.35 193.07 125.422 195.254 131.686 195.254C135.582 195.254 139.05 194.353 142.105 192.52C143.878 191.45 145.436 190.106 146.735 188.471C148.705 186.026 151.639 184.545 154.771 184.545C163.8 184.545 168.337 195.407 162.028 201.885ZM178.925 248.575C172.997 248.575 168.185 243.778 168.185 237.85C168.185 231.922 172.997 227.109 178.925 227.109C184.853 227.109 189.65 231.922 189.65 237.85C189.65 243.778 184.853 248.575 178.925 248.575ZM210.962 248.575C205.035 248.575 200.222 243.778 200.222 237.85C200.222 231.922 205.035 227.109 210.962 227.109C216.89 227.109 221.687 231.922 221.687 237.85C221.687 243.778 216.89 248.575 210.962 248.575ZM271.081 202.939C271.081 208.546 266.528 213.114 260.906 213.114C258.094 213.114 255.543 211.969 253.71 210.135C251.876 208.287 250.731 205.75 250.731 202.939V172.337C250.731 170.458 248.133 169.985 247.476 171.742L234.521 206.484C233.039 210.471 229.235 213.114 224.987 213.114H222.681C218.433 213.114 214.644 210.471 213.147 206.499L200.085 171.589C199.428 169.832 196.831 170.305 196.831 172.185V202.939C196.831 208.546 192.278 213.114 186.655 213.114C183.844 213.114 181.293 211.969 179.46 210.135C177.626 208.287 176.48 205.75 176.48 202.939V144.348C176.48 136.189 183.096 129.574 191.254 129.574H191.407C196.907 129.574 201.872 132.92 203.935 138.023L219.976 177.578C221.428 181.153 226.469 181.138 227.906 177.562L243.749 138.069C245.811 132.935 250.776 129.574 256.307 129.574C260.386 129.574 264.083 131.224 266.757 133.898C269.431 136.571 271.081 140.269 271.081 144.348V202.939ZM143.282 82.8691C138.698 79.4621 137.064 97.3069 114.865 92.4637C115.369 92.6318 115.873 92.7998 116.362 92.9679C131.885 98.361 150.386 90.4623 143.282 82.8691Z" fill="#F26C48"/>
<path d="M894.996 158.143C894.996 161.535 893.758 164.392 891.268 166.684C888.793 168.991 885.645 170.152 881.811 170.152C881.23 170.152 880.68 170.121 880.13 170.06C876.968 169.785 874.34 168.655 872.232 166.684C870.2 164.805 868.993 162.528 868.657 159.9C868.565 159.335 868.519 158.739 868.519 158.143C868.519 154.675 869.757 151.788 872.232 149.481C873.897 147.922 875.898 146.899 878.221 146.41C879.336 146.15 880.543 146.028 881.811 146.028C883.079 146.028 884.24 146.15 885.34 146.41H885.997C885.997 146.41 886.027 146.532 886.043 146.578C888.029 147.113 889.77 148.09 891.268 149.481C892.841 150.947 893.926 152.628 894.491 154.568C894.827 155.684 894.996 156.875 894.996 158.143Z" fill="#F26C48"/>
<path d="M410.399 68.7515C414.31 61.6625 419.764 56.1471 426.761 52.1901C433.759 48.2331 441.688 46.2622 450.564 46.2622C461.427 46.2622 470.731 49.1345 478.477 54.8637C486.207 60.6083 491.387 68.4307 493.999 78.3308H469.478C467.66 74.5113 465.063 71.5932 461.717 69.5918C458.371 67.5904 454.567 66.5973 450.305 66.5973C443.43 66.5973 437.868 68.9959 433.606 73.7627C429.343 78.5447 427.22 84.931 427.22 92.9367C427.22 100.942 429.343 107.329 433.606 112.111C437.868 116.893 443.43 119.276 450.305 119.276C454.567 119.276 458.371 118.283 461.717 116.282C465.063 114.28 467.645 111.377 469.478 107.542H493.999C491.387 117.458 486.223 125.265 478.477 130.948C470.731 136.647 461.442 139.489 450.564 139.489C441.703 139.489 433.759 137.518 426.761 133.561C419.764 129.604 414.31 124.104 410.399 117.061C406.488 110.018 404.532 101.981 404.532 92.9367C404.532 83.892 406.488 75.8252 410.399 68.7515Z" fill="#11192C"/>
<path d="M572.496 73.5794C577.538 79.0948 580.059 86.688 580.059 96.3284V138.847H557.891V99.3382C557.891 94.4645 556.623 90.6908 554.102 87.9866C551.581 85.2977 548.189 83.9379 543.927 83.9379C539.664 83.9379 536.273 85.2824 533.752 87.9866C531.231 90.6755 529.963 94.4645 529.963 99.3382V138.847H507.657V42.3511H529.963V75.8711C532.224 72.6627 535.31 70.096 539.221 68.171C543.132 66.2612 547.517 65.2987 552.391 65.2987C560.732 65.2987 567.424 68.064 572.481 73.5794H572.496Z" fill="#11192C"/>
<path d="M597.201 55.0623C594.726 52.7553 593.488 49.9136 593.488 46.5219C593.488 43.1302 594.726 40.1509 597.201 37.844C599.676 35.537 602.869 34.3911 606.78 34.3911C610.691 34.3911 613.762 35.537 616.237 37.844C618.712 40.1509 619.949 43.0385 619.949 46.5219C619.949 50.0053 618.712 52.7553 616.237 55.0623C613.762 57.3693 610.599 58.5152 606.78 58.5152C602.96 58.5152 599.676 57.3693 597.201 55.0623ZM617.871 66.0778V138.847H595.566V66.0778H617.871Z" fill="#11192C"/>
<path d="M666.134 68.7512C670.045 66.4442 674.399 65.2983 679.181 65.2983V88.9029H673.055C667.494 88.9029 663.323 90.0946 660.542 92.4933C657.762 94.8919 656.372 99.0781 656.372 105.082V138.862H634.066V66.0928H656.372V78.2236C658.984 74.2207 662.238 71.0734 666.149 68.7665L666.134 68.7512Z" fill="#11192C"/>
<path d="M761.712 66.0776V138.847H739.406V128.932C737.145 132.155 734.074 134.737 730.209 136.693C726.344 138.648 722.066 139.626 717.361 139.626C711.799 139.626 706.88 138.389 702.617 135.914C698.355 133.439 695.055 129.848 692.702 125.158C690.349 120.468 689.188 114.937 689.188 108.596V66.0776H711.356V105.587C711.356 110.46 712.609 114.234 715.145 116.938C717.666 119.627 721.058 120.987 725.32 120.987C729.583 120.987 733.097 119.642 735.617 116.938C738.138 114.249 739.406 110.46 739.406 105.587V66.0776H761.712Z" fill="#11192C"/>
<path d="M842.501 73.579C847.589 79.0944 850.125 86.6876 850.125 96.3281V138.847H827.957V99.3378C827.957 94.4641 826.689 90.6905 824.168 87.9862C821.647 85.2973 818.255 83.9376 813.993 83.9376C809.73 83.9376 806.338 85.282 803.818 87.9862C801.297 90.6752 800.029 94.4641 800.029 99.3378V138.847H777.723V66.0775H800.029V75.7332C802.29 72.5249 805.33 69.9734 809.165 68.1095C812.984 66.2456 817.293 65.2983 822.075 65.2983C830.6 65.2983 837.398 68.0637 842.486 73.579H842.501Z" fill="#11192C"/>
<path d="M915.727 66.0775V76.3749C913.634 72.9832 910.655 70.2484 906.79 68.1706C902.925 66.0775 898.418 65.0386 893.3 65.0386C887.296 65.0386 881.857 66.5511 876.998 69.6067C872.125 72.647 868.275 76.986 865.448 82.6389C862.622 88.2918 861.216 94.8613 861.216 102.332C861.216 109.803 862.622 116.403 865.448 122.087C868.275 127.786 872.125 132.17 876.998 135.257C881.857 138.343 887.296 139.886 893.3 139.886C898.418 139.886 902.894 138.832 906.729 136.693C910.548 134.569 913.543 131.804 915.727 128.412V138.725C915.727 144.546 914.352 148.778 911.618 151.436C908.883 154.079 905.201 155.408 900.602 155.408C900.175 155.408 899.762 155.393 899.365 155.378C899.502 156.279 899.579 157.196 899.579 158.143C899.579 162.788 897.776 166.897 894.4 170.045C892.857 171.465 891.13 172.581 889.205 173.36C892.994 174.261 897.134 174.704 901.641 174.704C909.723 174.704 916.476 173.1 921.915 169.892C927.354 166.668 931.387 162.344 934.046 156.905C936.689 151.482 938.018 145.416 938.018 138.725V66.0775H915.727ZM911.098 115.639C908.012 118.848 904.254 120.467 899.808 120.467C895.362 120.467 891.619 118.833 888.533 115.563C885.447 112.309 883.904 107.894 883.904 102.332C883.904 96.7711 885.447 92.4016 888.533 89.2237C891.619 86.0612 895.377 84.4723 899.808 84.4723C904.239 84.4723 908.012 86.0764 911.098 89.2848C914.184 92.5085 915.727 96.8933 915.727 102.47C915.727 108.046 914.184 112.416 911.098 115.639Z" fill="#11192C"/>
<path d="M953.998 82.6542C956.825 77.0013 960.675 72.6623 965.533 69.6067C970.407 66.5664 975.83 65.0386 981.834 65.0386C986.968 65.0386 991.459 66.0775 995.325 68.1706C999.19 70.2637 1002.17 72.9984 1004.26 76.3902V66.0928H1026.57V138.862H1004.26V128.565C1002.09 131.956 999.068 134.691 995.202 136.784C991.337 138.877 986.83 139.916 981.712 139.916C975.8 139.916 970.407 138.373 965.548 135.287C960.675 132.201 956.825 127.816 954.013 122.117C951.187 116.419 949.781 109.834 949.781 102.363C949.781 94.8919 951.187 88.3223 954.013 82.6694L953.998 82.6542ZM999.648 89.3001C996.562 86.0917 992.804 84.4723 988.373 84.4723C983.943 84.4723 980.184 86.0612 977.098 89.239C974.012 92.4168 972.469 96.7864 972.469 102.348C972.469 107.909 974.012 112.324 977.098 115.578C980.184 118.833 983.943 120.467 988.373 120.467C992.804 120.467 996.562 118.863 999.648 115.639C1002.73 112.416 1004.28 108.031 1004.28 102.47C1004.28 96.9086 1002.73 92.5238 999.648 89.3001Z" fill="#11192C"/>
<path d="M511.981 158.938V250.484H489.675V195.575L469.203 250.484H451.206L430.596 195.453V250.484H408.291V158.938H434.629L460.327 222.311L485.764 158.938H511.981Z" fill="#11192C"/>
<path d="M599.874 177.714V250.484H577.569V240.568C575.308 243.792 572.237 246.374 568.371 248.33C564.506 250.285 560.228 251.263 555.523 251.263C549.962 251.263 545.042 250.025 540.78 247.55C536.517 245.075 533.217 241.485 530.865 236.795C528.512 232.104 527.351 226.574 527.351 220.233V177.714H549.519V217.223C549.519 222.097 550.771 225.871 553.308 228.575C555.828 231.264 559.22 232.624 563.483 232.624C567.745 232.624 571.259 231.279 573.78 228.575C576.301 225.886 577.569 222.097 577.569 217.223V177.714H599.874Z" fill="#11192C"/>
<path d="M680.663 185.216C685.751 190.732 688.287 198.325 688.287 207.965V250.484H666.119V210.975C666.119 206.101 664.851 202.328 662.33 199.623C659.809 196.935 656.417 195.575 652.155 195.575C647.892 195.575 644.501 196.919 641.98 199.623C639.459 202.312 638.191 206.101 638.191 210.975V250.484H615.885V177.715H638.191V187.37C640.452 184.162 643.492 181.611 647.327 179.747C651.146 177.883 655.455 176.936 660.237 176.936C668.762 176.936 675.56 179.701 680.648 185.216H680.663Z" fill="#11192C"/>
<path d="M704.008 194.276C707.094 188.623 711.402 184.284 716.918 181.228C722.433 178.188 728.758 176.66 735.893 176.66C745.029 176.66 752.652 179.059 758.779 183.826C764.905 188.608 768.923 195.345 770.848 204.038H747.107C745.105 198.477 741.24 195.697 735.495 195.697C731.401 195.697 728.147 197.286 725.718 200.463C723.288 203.641 722.066 208.179 722.066 214.091C722.066 220.004 723.288 224.542 725.718 227.719C728.147 230.897 731.416 232.486 735.495 232.486C741.24 232.486 745.105 229.706 747.107 224.144H770.848C768.938 232.669 764.89 239.361 758.718 244.22C752.545 249.093 744.937 251.523 735.893 251.523C728.758 251.523 722.433 249.995 716.918 246.954C711.402 243.914 707.094 239.56 704.008 233.907C700.922 228.254 699.379 221.654 699.379 214.091C699.379 206.529 700.922 199.929 704.008 194.276Z" fill="#11192C"/>
<path d="M847.527 185.216C852.569 190.732 855.09 198.325 855.09 207.965V250.484H832.922V210.975C832.922 206.101 831.654 202.328 829.133 199.623C826.612 196.935 823.22 195.575 818.958 195.575C814.695 195.575 811.304 196.919 808.783 199.623C806.262 202.312 804.994 206.101 804.994 210.975V250.484H782.688V153.973H804.994V187.493C807.255 184.284 810.341 181.718 814.252 179.793C818.164 177.883 822.548 176.92 827.422 176.92C835.764 176.92 842.455 179.686 847.512 185.201L847.527 185.216Z" fill="#11192C"/>
<path d="M892.918 177.714H870.612V250.484H892.918V177.714Z" fill="#11192C"/>
<path d="M977.282 219.454H926.819C927.17 223.977 928.622 227.429 931.189 229.828C933.755 232.227 936.902 233.418 940.645 233.418C946.207 233.418 950.072 231.066 952.257 226.375H975.998C974.776 231.157 972.591 235.466 969.414 239.285C966.236 243.105 962.264 246.115 957.482 248.284C952.7 250.453 947.352 251.538 941.44 251.538C934.305 251.538 927.965 250.01 922.404 246.97C916.843 243.93 912.489 239.576 909.357 233.923C906.225 228.27 904.666 221.67 904.666 214.107C904.666 206.544 906.209 199.944 909.295 194.291C912.382 188.638 916.705 184.3 922.266 181.244C927.827 178.204 934.214 176.676 941.44 176.676C948.666 176.676 954.747 178.158 960.216 181.106C965.686 184.07 969.979 188.287 973.065 193.757C976.151 199.226 977.694 205.628 977.694 212.931C977.694 215.024 977.557 217.193 977.297 219.454H977.282ZM954.854 207.064C954.854 203.244 953.555 200.204 950.943 197.943C948.33 195.682 945.076 194.551 941.165 194.551C937.254 194.551 934.275 195.636 931.708 197.805C929.141 199.975 927.552 203.061 926.941 207.064H954.854Z" fill="#11192C"/>
<path d="M1002.06 248.269C997.112 246.099 993.201 243.12 990.329 239.331C987.457 235.542 985.853 231.31 985.501 226.62H1007.55C1007.81 229.14 1008.98 231.188 1011.06 232.746C1013.14 234.304 1015.71 235.099 1018.76 235.099C1021.54 235.099 1023.7 234.564 1025.22 233.464C1026.75 232.379 1027.5 230.974 1027.5 229.232C1027.5 227.139 1026.42 225.596 1024.25 224.603C1022.08 223.61 1018.55 222.495 1013.69 221.272C1008.48 220.05 1004.12 218.767 1000.64 217.422C997.158 216.078 994.164 213.939 991.643 211.036C989.122 208.118 987.854 204.191 987.854 199.241C987.854 195.07 989 191.266 991.307 187.829C993.614 184.391 997.005 181.672 1001.48 179.685C1005.96 177.684 1011.29 176.691 1017.46 176.691C1026.6 176.691 1033.78 178.952 1039.05 183.474C1044.31 187.997 1047.33 194.001 1048.11 201.472H1027.5C1027.15 198.951 1026.05 196.95 1024.17 195.468C1022.31 193.986 1019.85 193.252 1016.81 193.252C1014.19 193.252 1012.19 193.756 1010.8 194.75C1009.41 195.743 1008.71 197.118 1008.71 198.859C1008.71 200.952 1009.82 202.511 1012.04 203.55C1014.25 204.589 1017.71 205.643 1022.41 206.682C1027.81 208.072 1032.19 209.447 1035.58 210.792C1038.97 212.136 1041.95 214.305 1044.52 217.315C1047.09 220.31 1048.42 224.343 1048.49 229.385C1048.49 233.647 1047.3 237.452 1044.9 240.798C1042.5 244.144 1039.08 246.771 1034.6 248.681C1030.13 250.591 1024.93 251.553 1019.02 251.553C1012.68 251.553 1007.03 250.469 1002.06 248.299V248.269Z" fill="#11192C"/>
<path d="M428.228 268.36V270.453H411.82V286.587H426.15V288.68H411.82V307.013H409.498V268.36H428.228Z" fill="#11192C"/>
<path d="M443.185 305.577C441.077 304.324 439.427 302.537 438.235 300.214C437.043 297.877 436.448 295.157 436.448 292.041C436.448 288.924 437.059 286.25 438.266 283.913C439.473 281.575 441.138 279.803 443.261 278.565C445.385 277.343 447.753 276.717 450.381 276.717C453.009 276.717 455.361 277.328 457.47 278.565C459.578 279.803 461.228 281.56 462.42 283.882C463.611 286.204 464.207 288.909 464.207 292.025C464.207 295.142 463.596 297.877 462.389 300.199C461.182 302.537 459.517 304.324 457.393 305.562C455.27 306.815 452.902 307.441 450.274 307.441C447.646 307.441 445.293 306.815 443.185 305.562V305.577ZM456.003 303.79C457.775 302.812 459.196 301.345 460.266 299.359C461.335 297.373 461.87 294.928 461.87 292.041C461.87 289.153 461.335 286.754 460.266 284.768C459.196 282.782 457.775 281.315 456.018 280.338C454.261 279.36 452.367 278.871 450.32 278.871C448.273 278.871 446.393 279.36 444.652 280.338C442.91 281.315 441.504 282.782 440.435 284.768C439.366 286.754 438.831 289.168 438.831 292.041C438.831 294.913 439.35 297.388 440.405 299.359C441.459 301.345 442.849 302.812 444.591 303.79C446.332 304.767 448.227 305.256 450.259 305.256C452.291 305.256 454.2 304.767 455.973 303.79H456.003Z" fill="#11192C"/>
<path d="M480.096 305.577C477.988 304.324 476.338 302.537 475.146 300.214C473.955 297.877 473.359 295.157 473.359 292.041C473.359 288.924 473.97 286.25 475.177 283.913C476.384 281.575 478.049 279.803 480.173 278.565C482.296 277.343 484.664 276.717 487.292 276.717C489.92 276.717 492.273 277.328 494.381 278.565C496.489 279.803 498.139 281.56 499.331 283.882C500.523 286.204 501.119 288.909 501.119 292.025C501.119 295.142 500.507 297.877 499.3 300.199C498.094 302.537 496.428 304.324 494.305 305.562C492.181 306.815 489.813 307.441 487.185 307.441C484.557 307.441 482.205 306.815 480.096 305.562V305.577ZM492.914 303.79C494.687 302.812 496.107 301.345 497.177 299.359C498.246 297.373 498.781 294.928 498.781 292.041C498.781 289.153 498.246 286.754 497.177 284.768C496.107 282.782 494.687 281.315 492.93 280.338C491.173 279.36 489.278 278.871 487.231 278.871C485.184 278.871 483.305 279.36 481.563 280.338C479.821 281.315 478.416 282.782 477.346 284.768C476.277 286.754 475.742 289.168 475.742 292.041C475.742 294.913 476.262 297.388 477.316 299.359C478.37 301.345 479.76 302.812 481.502 303.79C483.244 304.767 485.138 305.256 487.17 305.256C489.202 305.256 491.112 304.767 492.884 303.79H492.914Z" fill="#11192C"/>
<path d="M511.996 283.943C513.157 281.636 514.762 279.849 516.809 278.596C518.856 277.343 521.194 276.717 523.821 276.717C526.678 276.717 529.169 277.481 531.277 279.009C533.385 280.536 534.867 282.507 535.723 284.921V266.251H538.045V306.998H535.723V299.069C534.898 301.528 533.446 303.545 531.369 305.104C529.306 306.662 526.785 307.441 523.806 307.441C521.178 307.441 518.841 306.815 516.794 305.547C514.746 304.279 513.142 302.476 511.981 300.153C510.82 297.816 510.255 295.112 510.255 292.026C510.255 288.939 510.835 286.25 511.981 283.928L511.996 283.943ZM534.195 285.12C533.171 283.118 531.781 281.575 530.024 280.491C528.267 279.406 526.296 278.871 524.127 278.871C521.957 278.871 519.849 279.391 518.123 280.445C516.396 281.499 515.052 283.011 514.089 284.982C513.127 286.953 512.638 289.321 512.638 292.026C512.638 294.73 513.127 297.098 514.089 299.069C515.052 301.055 516.412 302.567 518.153 303.637C519.895 304.706 521.881 305.226 524.127 305.226C526.373 305.226 528.282 304.691 530.055 303.606C531.827 302.522 533.217 300.978 534.225 298.977C535.219 296.976 535.723 294.653 535.723 292.01C535.723 289.367 535.219 287.106 534.195 285.105V285.12Z" fill="#11192C"/>
<path d="M588.782 297.098H571.549L568.081 307.013H565.545L578.898 269.246H581.48L594.787 307.013H592.251L588.782 297.098ZM588.064 295.005L580.196 272.485L572.282 295.005H588.064Z" fill="#11192C"/>
<path d="M607.635 279.269V299.038C607.635 301.238 608.017 302.751 608.781 303.576C609.545 304.401 610.89 304.813 612.815 304.813H615.977V307.013H612.463C610.019 307.013 608.216 306.402 607.055 305.165C605.894 303.943 605.313 301.895 605.313 299.023V279.253H601.066V277.099H605.313V269.506H607.635V277.099H615.977V279.253H607.635V279.269Z" fill="#11192C"/>
<path d="M666.164 268.36L654.721 291.384V307.029H652.399V291.384L640.849 268.36H643.492L653.53 289.062L663.521 268.36H666.164Z" fill="#11192C"/>
<path d="M680.556 305.577C678.448 304.324 676.798 302.537 675.606 300.214C674.415 297.877 673.819 295.157 673.819 292.041C673.819 288.924 674.43 286.25 675.637 283.913C676.844 281.575 678.509 279.803 680.633 278.565C682.756 277.343 685.124 276.717 687.752 276.717C690.38 276.717 692.733 277.328 694.841 278.565C696.949 279.803 698.599 281.56 699.791 283.882C700.983 286.204 701.579 288.909 701.579 292.025C701.579 295.142 700.967 297.877 699.761 300.199C698.554 302.537 696.888 304.324 694.765 305.562C692.641 306.815 690.273 307.441 687.645 307.441C685.017 307.441 682.665 306.815 680.556 305.562V305.577ZM693.374 303.79C695.147 302.812 696.567 301.345 697.637 299.359C698.706 297.373 699.241 294.928 699.241 292.041C699.241 289.153 698.706 286.754 697.637 284.768C696.567 282.782 695.147 281.315 693.39 280.338C691.633 279.36 689.738 278.871 687.691 278.871C685.644 278.871 683.765 279.36 682.023 280.338C680.281 281.315 678.876 282.782 677.806 284.768C676.737 286.754 676.202 289.168 676.202 292.041C676.202 294.913 676.722 297.388 677.776 299.359C678.83 301.345 680.22 302.812 681.962 303.79C683.704 304.767 685.598 305.256 687.63 305.256C689.662 305.256 691.572 304.767 693.344 303.79H693.374Z" fill="#11192C"/>
<path d="M735.938 277.114V307.013H733.616V300.52C732.822 302.797 731.508 304.523 729.659 305.73C727.81 306.922 725.702 307.518 723.319 307.518C719.973 307.518 717.238 306.433 715.115 304.248C712.991 302.063 711.937 298.824 711.937 294.531V277.13H714.213V294.363C714.213 297.923 715.053 300.658 716.749 302.537C718.445 304.431 720.737 305.379 723.64 305.379C726.542 305.379 729.094 304.355 730.912 302.292C732.73 300.23 733.631 297.19 733.631 293.156V277.13H735.953L735.938 277.114Z" fill="#11192C"/>
<path d="M753.951 278.245C755.708 277.083 757.954 276.503 760.673 276.503V279.085H759.894C757.129 279.085 754.837 279.925 753.004 281.591C751.17 283.256 750.254 285.991 750.254 289.764V306.998H747.931V277.099H750.254V283.271C750.941 281.071 752.163 279.39 753.936 278.229L753.951 278.245Z" fill="#11192C"/>
<path d="M806.445 268.36V270.453H790.037V286.587H804.368V288.68H790.037V307.013H787.715V268.36H806.445Z" fill="#11192C"/>
<path d="M815.918 269.872C815.536 269.49 815.352 268.971 815.352 268.299C815.352 267.672 815.536 267.168 815.918 266.756C816.3 266.343 816.758 266.145 817.308 266.145C817.858 266.145 818.331 266.343 818.713 266.756C819.095 267.153 819.279 267.672 819.279 268.299C819.279 268.956 819.095 269.49 818.713 269.872C818.331 270.254 817.873 270.453 817.308 270.453C816.743 270.453 816.284 270.254 815.918 269.872ZM818.454 277.114V307.013H816.131V277.114H818.454Z" fill="#11192C"/>
<path d="M851.362 279.788C853.47 281.973 854.525 285.212 854.525 289.505V307.014H852.248V289.673C852.248 286.113 851.408 283.394 849.712 281.499C848.016 279.605 845.725 278.657 842.822 278.657C839.919 278.657 837.368 279.681 835.55 281.744C833.732 283.806 832.83 286.847 832.83 290.88V307.014H830.508V277.114H832.83V283.455C833.625 281.209 834.938 279.498 836.787 278.306C838.636 277.114 840.759 276.519 843.173 276.519C846.519 276.519 849.254 277.619 851.347 279.788H851.362Z" fill="#11192C"/>
<path d="M885.936 279.009C888.014 280.536 889.45 282.492 890.29 284.875V277.114H892.612V307.945C892.612 310.695 892.047 313.109 890.901 315.187C889.755 317.265 888.228 318.854 886.287 319.984C884.347 321.1 882.193 321.665 879.825 321.665C876.311 321.665 873.393 320.763 871.071 318.961C868.764 317.158 867.236 314.744 866.518 311.688H868.84C869.528 314.072 870.826 315.981 872.721 317.387C874.615 318.793 876.983 319.511 879.81 319.511C881.78 319.511 883.553 319.037 885.141 318.105C886.73 317.173 887.983 315.829 888.9 314.087C889.817 312.345 890.275 310.298 890.275 307.945V299.191C889.45 301.574 887.983 303.545 885.905 305.119C883.828 306.692 881.307 307.456 878.373 307.456C875.746 307.456 873.408 306.83 871.361 305.562C869.314 304.294 867.71 302.491 866.548 300.169C865.387 297.831 864.822 295.127 864.822 292.041C864.822 288.955 865.403 286.266 866.548 283.943C867.71 281.636 869.314 279.849 871.361 278.596C873.408 277.343 875.746 276.717 878.373 276.717C881.337 276.717 883.858 277.481 885.936 279.009ZM888.762 285.12C887.739 283.118 886.348 281.575 884.592 280.49C882.835 279.406 880.864 278.871 878.694 278.871C876.525 278.871 874.417 279.39 872.69 280.445C870.964 281.499 869.619 283.011 868.657 284.982C867.694 286.953 867.205 289.321 867.205 292.025C867.205 294.73 867.694 297.098 868.657 299.069C869.619 301.055 870.979 302.567 872.721 303.637C874.462 304.706 876.448 305.226 878.694 305.226C880.94 305.226 882.85 304.691 884.622 303.606C886.394 302.521 887.785 300.978 888.793 298.977C889.786 296.975 890.29 294.653 890.29 292.01C890.29 289.367 889.786 287.106 888.762 285.104V285.12Z" fill="#11192C"/>
<path d="M929.829 293.034H905.553C905.614 295.708 906.179 297.969 907.203 299.802C908.241 301.636 909.601 303.011 911.297 303.927C912.993 304.844 914.826 305.302 916.843 305.302C919.608 305.302 921.915 304.584 923.779 303.133C925.643 301.681 926.819 299.71 927.293 297.22H929.722C929.172 300.26 927.751 302.736 925.475 304.63C923.198 306.524 920.311 307.472 916.828 307.472C914.2 307.472 911.862 306.845 909.785 305.593C907.722 304.34 906.087 302.552 904.926 300.23C903.75 297.892 903.169 295.173 903.169 292.056C903.169 288.939 903.75 286.22 904.896 283.913C906.057 281.606 907.661 279.834 909.739 278.596C911.801 277.374 914.169 276.748 916.828 276.748C919.486 276.748 921.854 277.359 923.84 278.596C925.826 279.834 927.339 281.468 928.362 283.5C929.401 285.532 929.921 287.732 929.921 290.085C929.921 291.399 929.89 292.392 929.814 293.065L929.829 293.034ZM926.285 284.28C925.307 282.446 923.962 281.071 922.266 280.185C920.571 279.284 918.753 278.841 916.782 278.841C914.811 278.841 912.993 279.284 911.328 280.185C909.647 281.087 908.287 282.446 907.233 284.28C906.179 286.113 905.614 288.359 905.553 291.002H927.598C927.705 288.359 927.262 286.113 926.285 284.28Z" fill="#11192C"/>
<path d="M946.497 278.245C948.254 277.083 950.5 276.503 953.219 276.503V279.085H952.44C949.675 279.085 947.383 279.925 945.55 281.591C943.716 283.256 942.8 285.991 942.8 289.764V306.998H940.478V277.099H942.8V283.271C943.487 281.071 944.709 279.39 946.482 278.229L946.497 278.245Z" fill="#11192C"/>
<path d="M965.594 279.269V299.038C965.594 301.238 965.976 302.751 966.74 303.576C967.504 304.401 968.849 304.813 970.774 304.813H973.936V307.013H970.422C967.978 307.013 966.175 306.402 965.014 305.165C963.853 303.943 963.272 301.895 963.272 299.023V279.253H959.025V277.099H963.272V269.506H965.594V277.099H973.936V279.253H965.594V279.269Z" fill="#11192C"/>
<path d="M983.408 269.872C983.026 269.49 982.843 268.971 982.843 268.299C982.843 267.672 983.026 267.168 983.408 266.756C983.79 266.343 984.248 266.145 984.798 266.145C985.348 266.145 985.822 266.343 986.204 266.756C986.586 267.153 986.769 267.672 986.769 268.299C986.769 268.956 986.586 269.49 986.204 269.872C985.822 270.254 985.364 270.453 984.798 270.453C984.233 270.453 983.775 270.254 983.408 269.872ZM985.944 277.114V307.013H983.622V277.114H985.944Z" fill="#11192C"/>
<path d="M1004.66 279.039C1006.75 277.496 1009.27 276.732 1012.24 276.732C1014.87 276.732 1017.2 277.359 1019.25 278.612C1021.3 279.864 1022.9 281.637 1024.06 283.959C1025.22 286.266 1025.8 288.97 1025.8 292.056C1025.8 295.142 1025.22 297.847 1024.06 300.184C1022.9 302.522 1021.3 304.309 1019.25 305.577C1017.2 306.845 1014.87 307.472 1012.24 307.472C1009.3 307.472 1006.8 306.693 1004.71 305.134C1002.61 303.576 1001.16 301.605 1000.34 299.206V321.115H998.014V277.114H1000.34V284.983C1001.13 282.553 1002.57 280.582 1004.66 279.039ZM1021.97 284.983C1021.01 282.996 1019.65 281.484 1017.91 280.445C1016.16 279.406 1014.15 278.871 1011.87 278.871C1009.59 278.871 1007.73 279.421 1005.97 280.491C1004.22 281.576 1002.83 283.119 1001.83 285.12C1000.82 287.122 1000.34 289.428 1000.34 292.026C1000.34 294.623 1000.84 296.991 1001.83 298.993C1002.83 300.994 1004.22 302.537 1005.97 303.622C1007.73 304.707 1009.7 305.241 1011.87 305.241C1014.04 305.241 1016.16 304.707 1017.91 303.652C1019.65 302.598 1021.01 301.07 1021.97 299.084C1022.93 297.098 1023.42 294.761 1023.42 292.041C1023.42 289.322 1022.93 286.969 1021.97 284.998V284.983Z" fill="#11192C"/>
<path d="M1038.04 305.257C1036.06 303.79 1034.94 301.697 1034.7 298.977H1037.08C1037.25 300.918 1038.09 302.461 1039.58 303.607C1041.08 304.752 1043.13 305.318 1045.71 305.318C1047.85 305.318 1049.55 304.737 1050.81 303.576C1052.07 302.415 1052.71 300.994 1052.71 299.313C1052.71 298.137 1052.37 297.174 1051.7 296.426C1051.03 295.677 1050.19 295.097 1049.19 294.699C1048.19 294.302 1046.83 293.859 1045.1 293.37C1043.02 292.79 1041.36 292.209 1040.07 291.629C1038.79 291.063 1037.71 290.208 1036.82 289.062C1035.92 287.931 1035.47 286.403 1035.47 284.494C1035.47 283.103 1035.87 281.805 1036.67 280.613C1037.46 279.421 1038.56 278.474 1039.98 277.771C1041.4 277.069 1043.01 276.732 1044.79 276.732C1047.73 276.732 1050.1 277.512 1051.91 279.07C1053.73 280.628 1054.69 282.783 1054.83 285.533H1052.51C1052.4 283.546 1051.68 281.942 1050.34 280.689C1049 279.437 1047.13 278.826 1044.75 278.826C1042.75 278.826 1041.1 279.376 1039.78 280.476C1038.47 281.576 1037.81 282.92 1037.81 284.494C1037.81 285.884 1038.18 287.015 1038.93 287.885C1039.68 288.741 1040.58 289.413 1041.68 289.872C1042.76 290.33 1044.2 290.819 1046 291.338C1047.97 291.888 1049.55 292.438 1050.74 292.958C1051.93 293.492 1052.94 294.256 1053.76 295.265C1054.59 296.273 1055 297.618 1055 299.313C1055 300.856 1054.6 302.247 1053.81 303.5C1053.01 304.752 1051.91 305.715 1050.49 306.418C1049.07 307.12 1047.48 307.457 1045.73 307.457C1042.58 307.457 1040.03 306.723 1038.04 305.257Z" fill="#11192C"/>
</svg>
